<?xml version="1.0" encoding="utf-8"?>
<!-- Generator: Adobe Illustrator 19.0.0, SVG Export Plug-In . SVG Version: 6.00 Build 0)  -->
<svg version="1.1" id="Layer_1" xmlns="http://www.w3.org/2000/svg" xmlns:xlink="http://www.w3.org/1999/xlink" x="0px" y="0px"
	 viewBox="-286 418.8 267.6 354.7" style="enable-background:new -286 418.8 267.6 354.7;" xml:space="preserve">
<style type="text/css">
	.st0{fill:#FFFFFF;stroke:#FFFFFF;stroke-miterlimit:10;}
	.st1{fill:none;stroke:#FFFFFF;stroke-miterlimit:10;}
	.st2{fill:none;stroke:#FCEE2B;stroke-width:3;stroke-linecap:round;stroke-linejoin:round;stroke-miterlimit:10;}
	.st3{fill:#FFFFFF;stroke:#FCEE2B;stroke-width:3;stroke-linecap:round;stroke-linejoin:round;stroke-miterlimit:10;}
	.st4{fill:none;stroke:#FCEE2B;stroke-width:4;stroke-miterlimit:10;}
</style>
<rect x="-55.4" y="575.4" class="st0" width="53.4" height="153"/>
<polygon id="XMLID_122_" class="st0" points="-43.1,490.1 -159.1,544.6 -286,490.9 -155.9,433.5 "/>
<polygon id="XMLID_121_" class="st0" points="-269,490.9 -162.3,446.4 -162.3,418.8 -268.7,468.9 "/>
<polygon id="XMLID_120_" class="st0" points="-55.4,487.3 -162.3,446 -162.3,418.8 -55.4,462.9 "/>
<polyline id="XMLID_119_" class="st0" points="-155.9,753.3 -44.3,687.2 -43.1,490.1 -159.1,544.6 -155.9,753.3 -286,697.5 
	-286,490.9 "/>
<polyline id="XMLID_118_" class="st0" points="-268.7,483.9 -286,490.9 -159.1,544.6 -43.1,490.1 -55,483.8 -55,489.3 -159.6,536.9 
	-269,490.9 -268.7,468.9 -159.9,514.1 -55.4,467.2 -55,483.8 "/>
<polyline id="XMLID_116_" class="st0" points="-159.1,509 -159.9,514.1 -159.6,536.9 "/>
<line id="XMLID_115_" class="st1" x1="-84.3" y1="475.9" x2="-162.3" y2="446"/>
<polygon id="XMLID_112_" class="st0" points="-44.3,687.2 -155.9,753.3 -159.1,544.6 -43.1,490.1 "/>
<polygon id="XMLID_110_" class="st0" points="-155.9,753.3 -286,697.6 -286,490.9 -159.1,544.6 "/>
<polygon id="XMLID_99_" class="st0" points="-159.6,536.9 -268.7,490.9 -268.7,468.9 -159.9,514.1 "/>
<polygon id="XMLID_97_" class="st0" points="-55,489.3 -159.6,536.9 -159.9,514.1 -55,463.2 "/>
<polygon id="XMLID_96_" class="st0" points="-159.1,509 -159.9,514.1 -268.7,468.9 -257.6,468.9 "/>
<polygon id="XMLID_93_" class="st0" points="-159.9,514.1 -55,463.2 -64.8,464.2 -159.1,509 "/>
<polygon id="XMLID_91_" class="st0" points="-162.3,418.8 -268.7,468.9 -257.6,468.9 -162.3,422.7 "/>
<polygon id="XMLID_90_" class="st0" points="-64.8,464.2 -162.3,422.7 -162.3,418.8 -55,463.2 "/>
<polyline id="XMLID_75_" class="st2" points="-19.9,508.8 -135.9,563.4 -262.8,509.7 -139.1,464.8 "/>
<polygon id="XMLID_74_" class="st3" points="-245.8,509.7 -139.1,465.1 -139.1,437.5 -245.5,487.6 "/>
<polyline id="XMLID_88_" class="st2" points="-139.1,464.8 -139.1,437.5 -32.2,481.6 -32.2,506.1 "/>
<polyline id="XMLID_95_" class="st2" points="-132.7,772 -21.1,705.9 -19.9,508.8 -135.9,563.4 -132.7,772 -262.8,716.2 
	-262.8,509.7 "/>
<polyline id="XMLID_94_" class="st2" points="-245.5,502.6 -262.8,509.7 -135.9,563.4 -19.9,508.8 -31.8,502.6 -31.8,508 
	-136.4,555.6 -245.8,509.7 -245.5,487.6 -136.7,532.9 -32.2,486 -31.8,502.6 "/>
<polyline id="XMLID_92_" class="st2" points="-135.9,527.7 -136.7,532.9 -136.4,555.6 "/>
<line id="XMLID_89_" class="st2" x1="-61.1" y1="494.6" x2="-139.1" y2="464.8"/>
<polygon id="XMLID_73_" class="st2" points="-21.1,705.9 -132.7,772 -135.9,563.4 -19.9,508.8 "/>
<polygon id="XMLID_72_" class="st3" points="-132.7,772 -262.8,716.4 -262.8,509.7 -135.9,563.4 "/>
<polygon id="XMLID_71_" class="st3" points="-136.4,555.6 -245.5,509.7 -245.5,487.6 -136.7,532.9 "/>
<polygon id="XMLID_70_" class="st2" points="-31.8,508 -136.4,555.6 -136.7,532.9 -31.8,481.9 "/>
<polygon id="XMLID_56_" class="st3" points="-135.9,527.7 -136.7,532.9 -245.5,487.6 -234.4,487.6 "/>
<polygon id="XMLID_42_" class="st2" points="-136.7,532.9 -31.8,481.9 -41.6,483 -135.9,527.7 "/>
<polygon id="XMLID_41_" class="st2" points="-139.1,437.5 -245.5,487.6 -234.4,487.6 -139.1,441.5 "/>
<polygon id="XMLID_40_" class="st2" points="-41.6,483 -139.1,441.5 -139.1,437.5 -31.8,481.9 "/>
<line class="st4" x1="-252" y1="454.9" x2="-252" y2="505.8"/>
<line class="st4" x1="-288.4" y1="610.5" x2="-264.6" y2="598.5"/>
</svg>
