<?xml version="1.0" encoding="utf-8"?>
<!-- Generator: Adobe Illustrator 19.0.0, SVG Export Plug-In . SVG Version: 6.00 Build 0)  -->
<svg version="1.1" id="Layer_1" xmlns="http://www.w3.org/2000/svg" xmlns:xlink="http://www.w3.org/1999/xlink" x="0px" y="0px"
	 viewBox="-1491 2861.6 362.8 230.2" style="enable-background:new -1491 2861.6 362.8 230.2;" xml:space="preserve">
<style type="text/css">
	.st0{fill:#FFFFFF;stroke:#FFFFFF;stroke-miterlimit:10;}
	.st1{fill:none;}
	.st2{fill:none;stroke:#FCEE2B;stroke-width:3;stroke-linejoin:round;stroke-miterlimit:10;}
	.st3{fill:none;stroke:#FCEE2B;stroke-width:3;stroke-linecap:round;stroke-linejoin:round;stroke-miterlimit:10;}
	.st4{fill:none;stroke:#FCEE2B;stroke-width:3;stroke-miterlimit:10;}
	.st5{fill:#FFFFFF;stroke:#FCEE2B;stroke-width:3;stroke-linecap:round;stroke-linejoin:round;stroke-miterlimit:10;}
	.st6{fill:#FCEE2B;stroke:#FCEE2B;stroke-width:3;stroke-linecap:round;stroke-linejoin:round;stroke-miterlimit:10;}
	.st7{font-family:'NeutraText-DemiAlt';}
	.st8{font-size:48px;}
</style>
<polygon id="XMLID_135_" class="st0" points="-1234.1,2933.1 -1331.1,2975.5 -1491,2921.4 -1380.4,2886.8 "/>
<path id="XMLID_133_" class="st1" d="M-1456.9,3034.2"/>
<line id="XMLID_132_" class="st1" x1="-1331.1" y1="2975.5" x2="-1331.1" y2="3074.9"/>
<polygon id="XMLID_131_" class="st0" points="-1234.1,3021.5 -1331.1,3074.9 -1331.1,2975.5 -1234.1,2933.1 "/>
<polygon id="XMLID_130_" class="st1" points="-1348.3,2959.8 -1412.3,2928.4 -1366.4,2918.3 -1305.1,2933.1 "/>
<polygon id="XMLID_129_" class="st0" points="-1348.3,2902.4 -1418.3,2876.9 -1377,2862.3 -1288.8,2882.9 "/>
<polygon id="XMLID_128_" class="st1" points="-1288.8,2882.9 -1377,2862.3 -1380.4,2915.9 -1305.1,2933.1 "/>
<polygon id="XMLID_126_" class="st0" points="-1348.3,2959.8 -1418.3,2933.1 -1418.3,2876.9 -1348.3,2902.4 "/>
<polygon id="XMLID_125_" class="st0" points="-1288.8,2933.1 -1348.3,2959.8 -1348.3,2902.4 -1288.8,2882.9 "/>
<polygon id="XMLID_124_" class="st0" points="-1331.1,3074.9 -1491,3011.1 -1491,2921.4 -1331.1,2975.5 "/>
<path id="XMLID_137_" class="st2" d="M-1318.6,2915.6"/>
<polyline id="XMLID_75_" class="st2" points="-1213.2,2949.2 -1310.2,2991.6 -1470.1,2937.5 -1397.4,2915.6 "/>
<path id="XMLID_74_" class="st3" d="M-1436,3050.3"/>
<line id="XMLID_73_" class="st3" x1="-1310.2" y1="2991.6" x2="-1310.2" y2="3091"/>
<polygon id="XMLID_72_" class="st3" points="-1213.2,3037.6 -1310.2,3091 -1310.2,2991.6 -1213.2,2949.2 "/>
<polyline id="XMLID_71_" class="st4" points="-1267.9,2949.2 -1327.4,2975.9 -1391.4,2944.6 -1345.5,2934.4 "/>
<polygon id="XMLID_70_" class="st3" points="-1327.4,2918.5 -1397.4,2893 -1356.2,2878.4 -1267.9,2899 "/>
<polyline id="XMLID_56_" class="st3" points="-1267.9,2949.2 -1267.9,2899 -1356.2,2878.4 -1359.5,2932.1 "/>
<polygon id="XMLID_42_" class="st5" points="-1327.4,2975.9 -1397.4,2949.2 -1397.4,2893 -1327.4,2918.5 "/>
<polygon id="XMLID_41_" class="st3" points="-1267.9,2949.2 -1327.4,2975.9 -1327.4,2918.5 -1267.9,2899 "/>
<polygon id="XMLID_40_" class="st5" points="-1310.2,3091 -1470.1,3027.2 -1470.1,2937.5 -1310.2,2991.6 "/>
<line id="XMLID_136_" class="st2" x1="-1213.2" y1="2949.2" x2="-1267.9" y2="2931.1"/>
<polygon class="st6" points="-1213.2,3037.6 -1310.2,3091 -1310.2,2991.6 -1213.2,2949.2 "/>
<polygon class="st6" points="-1267.9,2949.2 -1327.4,2973.3 -1327.4,2918.5 -1267.9,2899 "/>
<text id="XMLID_102_" transform="matrix(1 0 0 1 -1435.9872 3004.2319)" class="st7 st8">INSTRUCTION</text>
</svg>
