<?xml version="1.0" encoding="utf-8"?>
<!-- Generator: Adobe Illustrator 19.0.0, SVG Export Plug-In . SVG Version: 6.00 Build 0)  -->
<svg version="1.1" id="Layer_1" xmlns="http://www.w3.org/2000/svg" xmlns:xlink="http://www.w3.org/1999/xlink" x="0px" y="0px"
	 viewBox="-1814 3288.1 278.2 302.8" style="enable-background:new -1814 3288.1 278.2 302.8;" xml:space="preserve">
<style type="text/css">
	.st0{fill:#FFFFFF;stroke:#FFFFFF;stroke-miterlimit:10;}
	.st1{fill:none;stroke:#FCEE2B;stroke-width:3;stroke-linejoin:round;stroke-miterlimit:10;}
	.st2{fill:#FCEE2B;stroke:#FCEE2B;stroke-width:3;stroke-linejoin:round;stroke-miterlimit:10;}
	.st3{font-family:'NeutraText-DemiAlt';}
	.st4{font-size:48px;}
</style>
<polygon id="XMLID_87_" class="st0" points="-1658.8,3558.9 -1766.8,3525.3 -1766.8,3309.8 -1660.4,3335.5 "/>
<polygon id="XMLID_80_" class="st0" points="-1588,3564.3 -1662.4,3590.3 -1660.4,3335.5 -1588,3304.5 "/>
<polygon id="XMLID_79_" class="st0" points="-1588,3304.5 -1660.4,3335.5 -1766.8,3309.8 -1684.5,3288.7 "/>
<polygon id="XMLID_56_" class="st1" points="-1643.8,3572 -1751.7,3538.5 -1751.7,3322.9 -1645.3,3348.7 "/>
<polygon id="XMLID_42_" class="st1" points="-1573,3538.5 -1645.3,3572 -1645.3,3348.7 -1573,3317.7 "/>
<polygon id="XMLID_41_" class="st1" points="-1573,3317.7 -1645.3,3348.7 -1751.7,3322.9 -1669.4,3301.8 "/>
<polygon class="st2" points="-1573,3538.5 -1645.3,3572 -1645.3,3348.7 -1573,3317.7 "/>
<text id="XMLID_40_" transform="matrix(0.992 0.1261 -0.1261 0.992 -1812.5707 3377.3992)" class="st3 st4">DOWNLOAD</text>
</svg>
