<?xml version="1.0" encoding="utf-8"?>
<!-- Generator: Adobe Illustrator 19.0.0, SVG Export Plug-In . SVG Version: 6.00 Build 0)  -->
<svg version="1.1" id="Layer_1" xmlns="http://www.w3.org/2000/svg" xmlns:xlink="http://www.w3.org/1999/xlink" x="0px" y="0px"
	 viewBox="0 0 272 295.9" style="enable-background:new 0 0 272 295.9;" xml:space="preserve">
<style type="text/css">
	.st0{fill:#FFFFFF;}
	.st1{fill:none;stroke:#FCEE2B;stroke-width:4;stroke-linecap:round;stroke-linejoin:round;stroke-miterlimit:10;}
	.st2{fill:#FCEE2B;stroke:#FCEE2B;stroke-width:3;stroke-miterlimit:10;}
	.st3{fill:#FCEE2B;stroke:#FCEE2B;stroke-width:4;stroke-miterlimit:10;}
	.st4{fill:#FCEE2B;stroke:#FCEE2B;stroke-width:5;stroke-miterlimit:10;}
</style>
<polyline id="XMLID_78_" class="st0" points="134.8,0 1.3,59.4 124.8,115.6 248.4,54.1 134.8,0 1.3,59.4 1.3,203.2 124.8,266.2 
	252.9,187.4 248.4,54.1 124.8,115.6 124.8,266.2 252.9,187.4 "/>
<polyline id="XMLID_114_" class="st1" points="151.9,27.7 18.5,87 142,143.3 265.7,81.8 151.9,27.7 18.5,87 18.5,230.9 142,293.9 
	270,215.1 265.7,81.8 142,143.3 142,293.9 270,215.1 "/>
<line class="st2" x1="179.3" y1="14.7" x2="179.3" y2="41.4"/>
<line class="st3" x1="33.6" y1="39.4" x2="33.6" y2="81.6"/>
<line class="st4" x1="1" y1="175.6" x2="18.5" y2="183.1"/>
</svg>
