<?xml version="1.0" encoding="utf-8"?>
<!-- Generator: Adobe Illustrator 19.0.0, SVG Export Plug-In . SVG Version: 6.00 Build 0)  -->
<svg version="1.1" id="Layer_1" xmlns="http://www.w3.org/2000/svg" xmlns:xlink="http://www.w3.org/1999/xlink" x="0px" y="0px"
	 viewBox="-239 481.3 362.8 230.2" style="enable-background:new -239 481.3 362.8 230.2;" xml:space="preserve">
<style type="text/css">
	.st0{fill:#FFFFFF;stroke:#FFFFFF;stroke-miterlimit:10;}
	.st1{fill:none;}
	.st2{fill:none;stroke:#FCEE2B;stroke-width:3;stroke-linejoin:round;stroke-miterlimit:10;}
	.st3{fill:none;stroke:#FCEE2B;stroke-width:3;stroke-linecap:round;stroke-linejoin:round;stroke-miterlimit:10;}
	.st4{fill:none;stroke:#FCEE2B;stroke-width:3;stroke-miterlimit:10;}
	.st5{fill:#FFFFFF;stroke:#FCEE2B;stroke-width:3;stroke-linecap:round;stroke-linejoin:round;stroke-miterlimit:10;}
	.st6{font-family:'NeutraText-DemiAlt';}
	.st7{font-size:48px;}
</style>
<polygon id="XMLID_135_" class="st0" points="17.9,552.1 -79.1,594.5 -239,540.4 -128.4,505.8 "/>
<path id="XMLID_133_" class="st1" d="M-204.9,653.2"/>
<line id="XMLID_132_" class="st1" x1="-79.1" y1="594.5" x2="-79.1" y2="693.9"/>
<polygon id="XMLID_131_" class="st0" points="17.9,640.5 -79.1,693.9 -79.1,594.5 17.9,552.1 "/>
<polygon id="XMLID_130_" class="st1" points="-96.3,578.8 -160.3,547.4 -114.4,537.3 -53.1,552.1 "/>
<polygon id="XMLID_129_" class="st0" points="-96.3,521.4 -166.3,495.9 -125,481.3 -36.8,501.9 "/>
<polygon id="XMLID_128_" class="st1" points="-36.8,501.9 -125,481.3 -128.4,534.9 -53.1,552.1 "/>
<polygon id="XMLID_126_" class="st0" points="-96.3,578.8 -166.3,552.1 -166.3,495.9 -96.3,521.4 "/>
<polygon id="XMLID_125_" class="st0" points="-36.8,552.1 -96.3,578.8 -96.3,521.4 -36.8,501.9 "/>
<polygon id="XMLID_124_" class="st0" points="-79.1,693.9 -239,630.1 -239,540.4 -79.1,594.5 "/>
<path id="XMLID_137_" class="st2" d="M-66.6,534.6"/>
<polyline id="XMLID_75_" class="st2" points="38.8,568.2 -58.2,610.6 -218.1,556.5 -145.4,534.6 "/>
<path id="XMLID_74_" class="st3" d="M-184,669.3"/>
<line id="XMLID_73_" class="st3" x1="-58.2" y1="610.6" x2="-58.2" y2="710"/>
<polygon id="XMLID_72_" class="st3" points="38.8,656.6 -58.2,710 -58.2,610.6 38.8,568.2 "/>
<polyline id="XMLID_71_" class="st4" points="-15.9,568.2 -75.4,594.9 -139.4,563.6 -93.5,553.4 "/>
<polygon id="XMLID_70_" class="st3" points="-75.4,537.5 -145.4,512 -104.2,497.4 -15.9,518 "/>
<polyline id="XMLID_56_" class="st3" points="-15.9,568.2 -15.9,518 -104.2,497.4 -107.5,551.1 "/>
<polygon id="XMLID_42_" class="st5" points="-75.4,594.9 -145.4,568.2 -145.4,512 -75.4,537.5 "/>
<polygon id="XMLID_41_" class="st3" points="-15.9,568.2 -75.4,594.9 -75.4,537.5 -15.9,518 "/>
<polygon id="XMLID_40_" class="st5" points="-58.2,710 -218.1,646.2 -218.1,556.5 -58.2,610.6 "/>
<line id="XMLID_136_" class="st2" x1="38.8" y1="568.2" x2="-15.9" y2="550.1"/>
<text id="XMLID_102_" transform="matrix(1 0 0 1 -183.9872 623.2219)" class="st6 st7">INSTRUCTION</text>
</svg>
